<svg width="43" height="56" viewBox="0 0 43 56" fill="none" xmlns="http://www.w3.org/2000/svg">
<path d="M18.6667 6.64404C20.9042 6.64404 23.1344 7.06797 25.234 7.86505C24.8361 7.93915 24.4258 7.97789 24.0064 7.97789H23.3397C22.2352 7.97789 21.3397 8.87373 21.3397 9.97881C21.3397 11.0839 22.2352 11.9797 23.3397 11.9797H24.0064C27.6883 11.9797 30.6731 14.9659 30.6731 18.6495V19.3164C30.6731 20.4215 31.5685 21.3173 32.6731 21.3173C33.7776 21.3173 34.6731 20.4215 34.6731 19.3164V18.6495C34.6731 17.8415 34.8167 17.0672 35.0797 16.3505C36.5 18.9375 37.3334 21.96 37.3334 25.3167V53.3324C37.3334 54.8058 36.1395 56 34.6667 56C34.3165 56 33.9697 55.9309 33.6462 55.7968C33.3227 55.6628 33.0287 55.4662 32.7811 55.2185C32.5335 54.9708 32.337 54.6767 32.203 54.353C32.0696 54.0307 32.0006 53.6855 32 53.3367V52.0086C32 50.531 30.7997 49.3349 29.3229 49.3407L28.0067 49.3459C27.2683 49.3488 26.6681 48.7507 26.6681 48.0119V46.6623C26.6681 45.1889 25.4742 43.9944 24.0015 43.9944H22.6667C21.1939 43.9944 20 42.7999 20 41.3265L20 35.9908C20 34.7527 20.2878 33.5316 20.8406 32.424C21.3929 31.3174 22.1922 30.3543 23.1801 29.6107C25.2853 28.1689 26.6667 25.7466 26.6667 23.0014C26.6667 18.5811 23.085 14.9978 18.6667 14.9978C14.2484 14.9978 10.6667 18.5811 10.6667 23.0014C10.6667 25.756 12.0575 28.1855 14.1749 29.6254C15.1538 30.367 15.9441 31.3247 16.4928 32.424C17.0456 33.5317 17.3333 34.7527 17.3333 35.9908L17.3333 41.3265C17.3333 42.8 16.1394 43.9944 14.6667 43.9944H13.3372C11.8644 43.9944 10.6705 45.1889 10.6705 46.6623V47.9962C10.6705 48.733 10.0735 49.3302 9.33716 49.3302H8.00001C6.52724 49.3302 5.33334 50.5246 5.33334 51.9981V53.332C5.33334 53.6824 5.26436 54.0293 5.13035 54.353C4.99634 54.6767 4.79991 54.9708 4.55229 55.2185C4.30467 55.4662 4.01069 55.6628 3.68716 55.7968C3.36362 55.9309 3.01686 56 2.66667 56C1.19391 56 0 54.8081 0 53.3346V25.2874C0 14.195 9.26936 6.64404 18.6667 6.64404Z" fill="#21262F"/>
<path fill-rule="evenodd" clip-rule="evenodd" d="M33.37 0.667273C33.37 0.298748 33.0712 0 32.7027 0C32.3342 0 32.0354 0.298749 32.0354 0.667274V1.33455C32.0354 5.75685 28.4504 9.34183 24.0281 9.34183H23.3609C22.9924 9.34183 22.6936 9.64058 22.6936 10.0091C22.6936 10.3776 22.9924 10.6764 23.3609 10.6764H24.0281C28.4504 10.6764 32.0354 14.2614 32.0354 18.6837V19.3509C32.0354 19.7195 32.3342 20.0182 32.7027 20.0182C33.0712 20.0182 33.37 19.7195 33.37 19.3509V18.6837C33.37 14.2614 36.955 10.6764 41.3773 10.6764H42.0445C42.4131 10.6764 42.7118 10.3776 42.7118 10.0091C42.7118 9.64058 42.4131 9.34183 42.0445 9.34183H41.3773C36.955 9.34183 33.37 5.75685 33.37 1.33455V0.667273Z" fill="#FFA15E"/>
<path d="M14.5643 23.2176C14.5532 21.2561 15.1986 18.9565 17.8941 17.0639C18.163 16.8673 18.0104 16.4307 17.6848 16.4621C17.1836 16.5139 16.6871 16.6965 16.1845 16.8807C13.6899 17.8809 11.8991 20.5852 12.1017 23.3954C12.2013 26.1091 14.1164 28.5793 16.5237 29.2754C16.8378 29.3745 17.1268 28.9624 16.8284 28.6895C15.6828 27.7964 14.581 26.1807 14.5643 23.2176Z" fill="#242630" fill-opacity="0.71"/>
<path d="M14.0818 47.432C14.0818 46.4344 14.6203 46.096 14.9146 45.7605C15.047 45.6105 14.9278 45.3912 14.713 45.3912H13.5095C12.7209 45.3912 12.0854 46.0166 12.0854 46.7831V48.0059C12.0854 48.7739 12.7239 49.3978 13.5095 49.3978H14.713C14.9263 49.3978 15.0455 49.18 14.9146 49.0285C14.6203 48.69 14.0818 48.3704 14.0818 47.4464V47.4335V47.432Z" fill="#242630" fill-opacity="0.71"/>
<path d="M7.94749 50.7359H10.3177C10.4708 50.7359 10.5831 50.8904 10.5316 51.037C10.3599 51.3143 10.0245 51.7184 10.0245 52.2215C10.0245 53.9739 10.8445 54.036 11.1971 54.3331C11.411 54.5153 11.2182 54.7398 11.0835 54.7398H7.94749C7.28199 54.7398 6.74325 54.2023 6.74325 53.5381V51.9376C6.74325 51.276 7.28067 50.7359 7.94749 50.7359Z" fill="#242630" fill-opacity="0.71"/>
</svg>
