<svg width="43" height="56" viewBox="0 0 43 56" fill="none" xmlns="http://www.w3.org/2000/svg">
<path d="M18.6667 6.64355C20.9042 6.64355 23.1344 7.06748 25.234 7.86456C24.8361 7.93866 24.4258 7.9774 24.0064 7.9774H23.3397C22.2352 7.9774 21.3397 8.87324 21.3397 9.97832C21.3397 11.0834 22.2352 11.9792 23.3397 11.9792H24.0064C27.6883 11.9792 30.6731 14.9654 30.6731 18.649V19.3159C30.6731 20.421 31.5685 21.3169 32.6731 21.3169C33.7776 21.3169 34.6731 20.421 34.6731 19.3159V18.649C34.6731 17.841 34.8167 17.0667 35.0797 16.35C36.5 18.937 37.3334 21.9595 37.3334 25.3162V53.3319C37.3334 54.8053 36.1395 55.9995 34.6667 55.9995C34.3165 55.9995 33.9697 55.9304 33.6462 55.7963C33.3227 55.6623 33.0287 55.4658 32.7811 55.218C32.5335 54.9703 32.337 54.6762 32.203 54.3525C32.0696 54.0302 32.0006 53.685 32 53.3362V52.0081C32 50.5306 30.7997 49.3344 29.3229 49.3402L28.0067 49.3454C27.2683 49.3483 26.6681 48.7502 26.6681 48.0115V46.6618C26.6681 45.1884 25.4742 43.9939 24.0015 43.9939H22.6667C21.1939 43.9939 20 42.7995 20 41.326L20 35.9903C20 34.7522 20.2878 33.5311 20.8406 32.4235C21.3929 31.3169 22.1922 30.3538 23.1801 29.6102C25.2853 28.1684 26.6667 25.7461 26.6667 23.001C26.6667 18.5807 23.085 14.9973 18.6667 14.9973C14.2484 14.9973 10.6667 18.5807 10.6667 23.001C10.6667 25.7555 12.0575 28.185 14.1749 29.6249C15.1538 30.3665 15.9441 31.3242 16.4928 32.4235C17.0456 33.5312 17.3333 34.7523 17.3333 35.9903L17.3333 41.326C17.3333 42.7995 16.1394 43.9939 14.6667 43.9939H13.3372C11.8644 43.9939 10.6705 45.1884 10.6705 46.6618V47.9958C10.6705 48.7325 10.0735 49.3297 9.33716 49.3297H8.00001C6.52724 49.3297 5.33334 50.5242 5.33334 51.9976V53.3315C5.33334 53.6819 5.26436 54.0288 5.13035 54.3525C4.99634 54.6762 4.79991 54.9703 4.55229 55.218C4.30467 55.4658 4.01069 55.6623 3.68716 55.7963C3.36362 55.9304 3.01686 55.9995 2.66667 55.9995C1.19391 55.9995 0 54.8076 0 53.3342V25.2869C0 14.1946 9.26936 6.64355 18.6667 6.64355Z" fill="#EBE6D7"/>
<path fill-rule="evenodd" clip-rule="evenodd" d="M33.37 0.667273C33.37 0.298748 33.0712 0 32.7027 0C32.3342 0 32.0354 0.298749 32.0354 0.667274V1.33455C32.0354 5.75685 28.4504 9.34183 24.0281 9.34183H23.3609C22.9924 9.34183 22.6936 9.64058 22.6936 10.0091C22.6936 10.3776 22.9924 10.6764 23.3609 10.6764H24.0281C28.4504 10.6764 32.0354 14.2614 32.0354 18.6837V19.3509C32.0354 19.7195 32.3342 20.0182 32.7027 20.0182C33.0712 20.0182 33.37 19.7195 33.37 19.3509V18.6837C33.37 14.2614 36.955 10.6764 41.3773 10.6764H42.0445C42.4131 10.6764 42.7118 10.3776 42.7118 10.0091C42.7118 9.64058 42.4131 9.34183 42.0445 9.34183H41.3773C36.955 9.34183 33.37 5.75685 33.37 1.33455V0.667273Z" fill="#FFA15E"/>
<path d="M14.5643 23.2171C14.5532 21.2556 15.1986 18.956 17.8941 17.0634C18.163 16.8669 18.0104 16.4302 17.6848 16.4616C17.1836 16.5134 16.6871 16.696 16.1845 16.8803C13.6899 17.8804 11.8991 20.5847 12.1017 23.3949C12.2013 26.1086 14.1164 28.5788 16.5237 29.2749C16.8378 29.374 17.1268 28.9619 16.8284 28.689C15.6828 27.7959 14.581 26.1802 14.5643 23.2171Z" fill="#EBE6D7" fill-opacity="0.4"/>
<path d="M14.0818 47.4314C14.0818 46.4338 14.6203 46.0954 14.9146 45.7599C15.047 45.6099 14.9278 45.3906 14.713 45.3906H13.5095C12.7209 45.3906 12.0854 46.016 12.0854 46.7825V48.0052C12.0854 48.7733 12.7239 49.3972 13.5095 49.3972H14.713C14.9263 49.3972 15.0455 49.1794 14.9146 49.0278C14.6203 48.6894 14.0818 48.3698 14.0818 47.4458V47.4329V47.4314Z" fill="#EBE6D7" fill-opacity="0.4"/>
<path d="M7.94749 50.7351H10.3177C10.4708 50.7351 10.5831 50.8896 10.5316 51.0361C10.3599 51.3135 10.0245 51.7175 10.0245 52.2207C10.0245 53.973 10.8445 54.0351 11.1971 54.3322C11.411 54.5145 11.2182 54.7389 11.0835 54.7389H7.94749C7.28199 54.7389 6.74325 54.2015 6.74325 53.5373V51.9368C6.74325 51.2752 7.28067 50.7351 7.94749 50.7351Z" fill="#EBE6D7" fill-opacity="0.4"/>
</svg>
